REM MD5 6eda0f6576d3295e05d884125f49d04d
FILE "Bases Loaded '96 - Double Header (USA).bin" BINARY
  TRACK 01 MODE2/2352
    INDEX 01 00:00:00
  TRACK 02 AUDIO
    INDEX 00 10:39:33
    INDEX 01 10:41:33
  TRACK 03 AUDIO
    INDEX 00 12:12:45
    INDEX 01 12:14:45
REM LEADOUT 15:16:67
